<?xml version="1.0" encoding="utf-8"?>
<!-- Generator: Adobe Illustrator 25.3.1, SVG Export Plug-In . SVG Version: 6.00 Build 0)  -->
<svg version="1.1" id="Réteg_1" xmlns="http://www.w3.org/2000/svg" xmlns:xlink="http://www.w3.org/1999/xlink" x="0px" y="0px"
	 viewBox="0 0 500 500" style="enable-background:new 0 0 500 500;" xml:space="preserve">
<style type="text/css">
	.st0{fill:#148436;}
	.st1{fill:#FFFFFF;}
	.st2{fill:#0F602C;}
</style>
<circle class="st0" cx="249.34" cy="212.37" r="160.75"/>
<circle id="XMLID_1_" class="st1" cx="249.34" cy="212.37" r="141.12"/>
<path class="st2" d="M188.49,166.5c7.78-13.85,31.58-24.86,34.98-32.94c0.18-0.43,0.8-2.02,2.04-2.3c2.37-0.52,4.94,4.2,6.89,6.64
	c3.17,3.96,7.72,5.64,25.53,8.17c22.97,3.27,23.18,1.58,30.38,4.09c5.54,1.93,15.63,5.44,21.7,14.3c11.79,17.2,0.09,42.39-3.57,50.3
	c-3.19,6.88-9.17,19.76-22.51,28.63c-5.59,3.72-12.21,6.56-11.71,8.13c0.57,1.8,9.2-1.99,20.17,0.77c9.14,2.29,9.57,6.54,18.64,8.43
	c2.2,0.46,12.33,2.57,18.64-2.04c7.57-5.53,6.3-18.29,5.62-30.64c-2.63-47.61,6.03-43.5,0.77-68.43
	c-3.19-15.12-7.92-37.51-27.32-55.91c-3.88-3.68-28.72-26.53-63.06-23.74c-43.16,3.5-73.13,45.17-78.89,77.36
	c-1.12,6.28,0.46,2.24-0.77,45.19c-0.01,0.51-0.53,18.74,3.83,41.87c2,10.58,3.33,13.25,5.87,14.81c7.69,4.71,17.23-6.42,39.83-9.45
	c2.6-0.35,8.08-0.95,8.17-2.3c0.09-1.29-4.88-2.52-6.64-3.06c-15.27-4.68-24.83-29.58-28.09-44.17
	C185.55,184.73,183.48,175.42,188.49,166.5z"/>
<path class="st0" d="M214.68,258.3c11.13,1.41,17.6,8.2,34.72,8.17c18.13-0.04,24.91-7.69,36.77-9.19
	c29.29-3.71,69.53,30.41,67.4,57.19c-2.47,31.09-61.81,50.2-104.23,50.75c-41.28,0.54-100.57-16.04-104.11-46.67
	C142.05,291.01,184.29,254.46,214.68,258.3z"/>
<g>
	<g>
		<path class="st2" d="M68.96,258.99c0.16,0.36,0.33,0.72,0.5,1.08c0.26,0.22,0.51,0.44,0.77,0.65c0.01,0.05,0.03,0.11,0.04,0.16
			c-0.02,0.26-0.04,0.53-0.06,0.79c0.01,0.05,0.03,0.11,0.04,0.16c0.31,1.29,0.79,2.38,1.41,3.26c0.63,0.88,1.11,1.61,1.45,2.23
			c0.34,0.61,0.57,0.98,0.69,1.11c0.12,0.13,0.2,0.25,0.23,0.35c0.08,0.43,0.17,0.86,0.25,1.29c0.12,0.41,0.83,0.78,2.12,1.09
			c1.29,0.31,2.32,0.79,3.08,1.45c0.76,0.66,1.96,1.15,3.6,1.45c0.25,0.12,0.62,0.23,1.1,0.31c0.48,0.09,0.74,0.2,0.79,0.34
			c0.25,0.71,0.8,1.14,1.67,1.27c1.81,0.87,2.88,1.71,3.22,2.58c0.44,1.13-0.14,2.31-1.73,3.55c-0.61,0.54-1.22,1.08-1.83,1.63
			c-0.04,0.02-0.35,0.02-0.94,0.01c-0.59-0.01-1.13,0.11-1.62,0.35c-0.49,0.25-0.83,0.37-1.03,0.37c-0.19,0-0.4,0.05-0.62,0.15
			c-0.3,0.13-0.28,0.6,0.05,1.41c0.12,0.28,0.48,0.74,1.09,1.35c0.1,0.12,0.19,0.25,0.29,0.37c-0.02,0.57,0.04,1.02,0.18,1.34
			c0.04,0.09,0.51,0.67,1.42,1.71c0.91,1.04,1.46,1.69,1.65,1.99c0.18,0.3,0.58,0.77,1.2,1.4c0.13,0.27,0.26,0.54,0.39,0.8
			c0.03,0.21,0.07,0.41,0.1,0.62c0.09,0.18,0.42,0.46,1,0.85c0.58,0.39,1.29,1.33,2.16,2.8c0.27,0.24,0.53,0.48,0.8,0.72
			c0.05,0.09,0.09,0.17,0.14,0.26c0.76,1.41,0.65,2.4-0.36,3c-0.21,0.12-0.69,0.14-1.44,0.04c-0.75-0.1-1.53-0.09-2.34,0.03
			c-1.57-0.42-3.14-0.87-4.71-1.34c-1.61-0.46-2.68-1.24-3.21-2.31c-0.09-0.19,0.1-1.03,0.61-2.51c0.07-0.04,0.06-0.15-0.03-0.34
			c-0.22-0.47-0.52-0.92-0.91-1.37c-0.39-0.45-0.65-0.84-0.8-1.17c-0.06-0.15-0.91-1.26-2.5-3.43c-0.32-0.55-0.64-1.1-0.95-1.66
			c-0.08-0.2-0.35-0.63-0.79-1.31c-0.69-1.18-1.37-2.38-2.04-3.59c-0.98-1.11-2.27-1.79-3.9-2.03c-0.08,0.03-0.34-0.16-0.78-0.58
			c-1.95-0.57-3.9-1.18-5.85-1.84c-0.62-1.12-1.36-1.74-2.24-1.86c-0.15-0.07-0.3-0.14-0.45-0.21c-0.27-0.58-0.67-1.06-1.23-1.43
			c-0.55-0.37-1.01-0.74-1.37-1.12c-0.66-0.34-1.33-0.68-1.99-1.03c-0.72-0.46-1.48-0.91-2.29-1.35c-0.81-0.44-1.61-0.71-2.4-0.79
			c-0.79-0.08-1.27-0.19-1.43-0.34c-0.16-0.14-0.4-0.17-0.71-0.08c-0.18-0.04-0.36-0.09-0.53-0.13c-0.65-0.59-1.26-0.8-1.84-0.63
			c-0.28,0.21-0.56,0.43-0.83,0.64c-2.07-0.31-3.16-0.47-3.28-0.43c-0.08,0.02-0.27,0.15-0.59,0.37c-0.12,0.03-0.23,0.07-0.35,0.1
			c-0.85,0.25-2.04,0.06-3.56-0.6c-0.29,0.15-0.59,0.3-0.88,0.46c-0.92,0.05-1.83,0.11-2.75,0.16c-0.35,0.1-0.94,0.47-1.77,1.13
			c-0.22-0.22-0.37-0.32-0.44-0.3c-1.08,0.31-2.04,1.61-2.84,3.96c-0.79,2.34-2.53,3.95-5.26,4.8c-0.23,0.07-0.6,0.07-1.09,0.01
			c-0.5-0.07-1.01-0.05-1.55,0.04c-0.54,0.09-1.19-0.28-1.95-1.13c-0.76-0.85-1.22-1.64-1.4-2.34c-0.91-3.71-0.03-6.95,2.59-9.52
			c2.62-2.58,4.38-3.92,5.24-4.13c0.78-0.11,1.55-0.22,2.33-0.34c0.35-0.3,0.7-0.6,1.05-0.89c1.76-0.2,3.52-0.4,5.28-0.61
			c0.38-0.23,0.77-0.46,1.15-0.69c1.83,0.36,3.66,0.7,5.49,1.03c0.6-0.15,1.21-0.3,1.81-0.45c0.08-0.02,0.48,0.35,1.21,1.09
			c0.08-0.02,0.09-0.16,0.04-0.41c-0.08-0.38-0.42-0.82-1.02-1.34c-0.6-0.52-1.21-1.21-1.83-2.07c-0.32-0.19-0.65-0.39-0.97-0.59
			c0.05-0.15,0.08-0.42,0.09-0.83c-0.14-0.31-1.26-1.16-3.35-2.65c-0.36-1.37-1.01-2.38-1.96-3.03c-0.95-0.65-1.54-1.7-1.75-3.13
			c-0.06-0.13-0.12-0.26-0.18-0.39c-1.18-0.07-1.89-0.94-2.11-2.62c-0.06-0.13-0.12-0.27-0.17-0.4c-1.48-0.83-2.27-1.84-2.36-2.98
			c-1.27-0.54-2.29-2.18-2.99-4.97c-0.52-0.38-0.93-0.98-1.25-1.8c-0.31-0.82-0.58-1.4-0.81-1.76c-0.23-0.35-0.35-0.67-0.38-0.97
			c-0.07-0.97,0.45-1.5,1.57-1.6c0.32-0.03,0.68,0.18,1.1,0.62c0.41,0.45,0.7,0.65,0.86,0.64c0.08-0.01,0.29-0.4,0.63-1.16
			c1.23-0.11,2.05,0.4,2.46,1.52c0.41,1.12,0.94,1.93,1.59,2.43c0.51,0.3,0.91,0.97,1.21,2c0.3,1.03,0.61,1.52,0.93,1.48
			c0.28-0.04,0.92,0.8,1.96,2.48c1.04,1.67,1.92,2.84,2.64,3.55c0.72,0.71,1.12,1.33,1.19,1.86c0.1,0.12,0.19,0.24,0.29,0.36
			c1.01-0.04,1.59,0.5,1.75,1.62c0.17,0.31,0.33,0.61,0.5,0.92c0.17,0.04,0.34,0.07,0.5,0.11c0.11,0.18,0.22,0.36,0.33,0.54
			c0.04,0.26,0.08,0.52,0.12,0.78c0.1,0.15,0.21,0.29,0.31,0.44c1-0.07,1.89,0.54,2.68,1.79c0.79,1.24,2.76,3.42,5.99,6.26
			c3.24,2.83,5.28,4.21,6.07,4.43c0.79,0.21,1.91,0.69,3.35,1.39c1.44,0.71,2.7,0.94,3.76,0.74c0.12-0.16,0.24-0.37,0.33-0.64
			c-0.71-1.07-1.41-2.15-2.1-3.25c0.12-0.03,0.16-0.64,0.13-1.84c-0.54-0.76-1.03-1.29-1.47-1.6c-0.44-0.31-0.68-0.58-0.73-0.81
			c-0.05-0.41-0.09-0.83-0.14-1.24c-0.36-1.25-0.71-2.51-1.04-3.77c-0.84-3.42-1.72-5.99-2.73-7.68c-0.42-1.2-0.83-2.41-1.23-3.64
			c-0.04-0.28-0.07-0.55-0.11-0.83c-0.06-0.5-0.35-1.2-0.86-2.14c-0.04-0.72-0.08-1.45-0.12-2.17c-0.89-1.92-1.36-3.38-1.44-4.34
			c-0.01-0.13,0-0.51,0.02-1.16c-0.82-3.21-1.58-6.49-2.27-9.85c-0.19-0.79-1.08-2.53-2.61-5.36c-0.04-0.27-0.09-0.54-0.13-0.82
			c-0.01-0.68,0.43-1.5,1.32-2.43c0.89-0.93,1.7-1.39,2.42-1.39c3.99,0.01,6.11,5.74,7.43,16.29c0.41,1.25,0.82,2.49,1.24,3.72
			c0.01,0.06,0.01,0.12,0.02,0.18c-0.05,0.35-0.1,0.69-0.15,1.04c0.01,0.12,0.02,0.24,0.03,0.37c0.03,0.37,0.24,0.93,0.61,1.68
			c0.38,0.75,0.92,2.47,1.68,5.07c0.37,1.18,0.75,2.36,1.13,3.52c0.01,0.39,0.03,0.77,0.05,1.16c0.09,0.58,0.34,1.21,0.77,1.87
			c0.43,0.66,0.83,1.71,1.22,3.14c0.39,1.42,0.72,2.39,0.99,2.92c0.16,0.43,0.33,0.86,0.49,1.29c0.04,0.22,0.27,0.65,0.69,1.28
			c0.41,0.63,0.74,1.49,0.98,2.59C68.96,257.86,68.97,258.29,68.96,258.99z"/>
		<path class="st0" d="M53.98,302.55c0.27,0.43,0.55,0.86,0.82,1.29c0.52,0.28,1.09,0.56,1.71,0.85c0.62,0.29,1.28,0.83,2,1.61
			c0.72,0.78,1.62,1.22,2.7,1.31c2.62,1.45,4.41,2.78,5.38,4.12c0.46,2.46,0.44,4.09-0.11,4.9c-0.55,0.81-1.68,1.72-3.39,2.73
			c-0.46,0.27-1.16,0.35-2.13,0.23c-0.97-0.12-1.7-0.17-2.2-0.16c-0.5,0.01-1.37-0.14-2.6-0.48c-0.07,0.04-0.26-0.02-0.58-0.19
			c-0.32-0.17-0.85-0.28-1.59-0.36c-0.75-0.07-1.49-0.3-2.23-0.7c-0.75-0.4-1.48-0.61-2.19-0.65c-0.72-0.04-1.99-0.3-3.82-0.83
			c-2.76-0.13-4.3-0.14-4.63,0.03c-0.4,0.2-0.51,0.48-0.35,0.83c0.11,0.23,0.41,0.58,0.9,1.05c0.18,0.23,0.36,0.46,0.54,0.69
			c0.17,0.34,0.33,0.69,0.5,1.03c0.38,0.31,0.75,0.61,1.13,0.91c0.23,0.02,0.54-0.01,0.92-0.07c0.13,0.07,0.72,0.72,1.8,1.92
			c0.06,0.04,0.13,0.07,0.19,0.11c0.12-0.21,0.29-0.37,0.5-0.49c0.36-0.2,0.86,0.22,1.54,1.23c0.67,1.01,1.34,1.68,1.98,2.02
			c0.46-0.26,0.79-0.28,1.01-0.06c0.22,0.23,0.63,0.39,1.25,0.49c0.61,0.1,1.18,0.53,1.69,1.27c0.52,0.75,0.96,1.01,1.3,0.8
			c1.15-0.7,2.6-0.28,4.38,1.19c0.31,0.36,0.61,0.46,0.88,0.28c0.65-0.41,1.07-0.57,1.24-0.48c0.18,0.1,0.65,0.42,1.42,0.97
			c0.75,0.21,1.5,0.41,2.25,0.61c0.5-0.01,0.99-0.03,1.48-0.05c0.39,0.01,0.77,0.11,1.12,0.28c0.35,0.18,0.97,0.28,1.83,0.31
			c0.87,0.03,1.49,0.11,1.88,0.25c0.46,0.06,0.91,0.12,1.37,0.18c1.3,0.05,2.28,0.55,2.94,1.5c0.35,0.5,0.59,1.97,0.79,4.42
			c0.2,2.45-0.66,4.45-2.67,5.98c-0.77,0.59-1.46,0.67-2.05,0.21c-0.59-0.45-1.46-0.47-2.61-0.05c-1.15,0.42-2.36,0.61-3.63,0.55
			c-1.27-0.06-1.94-0.07-2-0.03c-0.13,0.24-0.26,0.48-0.38,0.72c-0.07,0.05-0.13,0.1-0.2,0.14c-0.76,0.55-1.57,0.7-2.45,0.44
			c0.04,0.12-0.14,0.47-0.52,1.05c-0.44-0.06-0.88-0.12-1.32-0.18c-1.15,1.13-1.54,1.95-1.18,2.45c0.22,0.3,0.56,0.65,1.03,1.03
			c0.47,0.38,0.89,0.78,1.25,1.2c0.36,0.42,1.13,0.99,2.33,1.7c1.86,1.08,3.72,2.12,5.6,3.12c0.45,0.1,0.89,0.2,1.34,0.3
			c0.26,0.13,0.53,0.26,0.79,0.39c0.86,0.53,1.63,0.74,2.31,0.64c0.68-0.1,1.3,0.11,1.86,0.64c0.87-0.43,1.99-0.46,3.36-0.11
			c1.4-0.09,2.79-0.2,4.18-0.33c1.09-0.12,1.73-0.17,1.94-0.13c1.03-0.92,1.98-2.77,2.93-5.52c0.09-0.08,0.18-0.16,0.27-0.24
			c0.61-0.54,1.44-0.79,2.49-0.78c1.05,0.02,1.79,0.26,2.23,0.74c0.35,0.45,0.71,0.89,1.06,1.34c0.59,0.45,1.17,0.9,1.76,1.34
			c0.3,0.31,0.66,1.57,1.15,3.77c0.49,2.2,0.14,3.94-1.13,5.2c-0.81,0.81-1.7,1.31-2.69,1.5c-0.99,0.19-1.82,0.49-2.47,0.9
			c-0.66,0.41-1.47,0.41-2.45,0c-0.15-0.01-0.31-0.02-0.46-0.03c-1.49,1.2-3.33,1.4-5.49,0.54c-0.85-0.01-1.82,0.05-2.9,0.16
			c-1.09,0.11-1.87,0.02-2.36-0.27c-0.08-0.09-0.73-0.12-1.95-0.11c-1.23,0-2.05-0.1-2.47-0.29c-0.42-0.2-1.17-0.65-2.25-1.37
			c-1.08-0.72-1.81-0.92-2.22-0.58c-0.26,0.14-0.51,0.27-0.77,0.41c-2.17-0.99-3.63-1.61-4.4-1.79c-0.57-0.58-1.03-1.02-1.36-1.31
			c-2.89-0.96-5.77-3.31-8.48-7.11c-1.3-1.82-2.1-4.21-2.35-7.12c-0.25-2.92,0.28-4.78,1.49-5.58c0.39-0.6,0.78-1.19,1.18-1.79
			c2.72-1.79,4.7-2.87,5.94-3.26c0.23,0.06,0.42,0.05,0.55-0.04c0.41-0.27,0.5-0.58,0.27-0.94c-0.33-0.14-0.78-0.22-1.34-0.25
			c-0.57-0.03-1.05-0.2-1.44-0.52c-0.46-0.24-0.92-0.49-1.38-0.74c-0.98,0.26-1.61,0.28-1.89,0.06c-0.28-0.22-0.82-0.52-1.63-0.89
			c-0.81-0.37-1.62-0.85-2.43-1.45c-0.18,0.17-1.86-0.28-5.04-1.51c-0.11,0.06-0.21,0.12-0.32,0.18c-0.04,0.02-0.29-0.2-0.77-0.65
			c-0.53-0.29-1.05-0.58-1.58-0.87c-0.98-0.55-3.07-2.19-6.2-5.11c-3.13-2.93-4.79-4.81-5.06-5.41c-0.74-1.65-1.02-3.26-0.84-4.79
			c0.18-1.53,0.65-2.58,1.38-3.13c0.73-0.55,1.36-1.17,1.87-1.83c0.51-0.67,0.94-1.07,1.27-1.22c0.15-0.07,0.57-0.11,1.26-0.13
			c0.69-0.02,1.29-0.12,1.82-0.28c0.52-0.17,0.84-0.2,0.97-0.12c0.35-0.16,0.7-0.32,1.05-0.48c0.07-0.03,0.51,0.18,1.31,0.62
			c0.8,0.44,1.47,0.53,2.02,0.27c0.22-0.1,0.68,0,1.38,0.3c0.7,0.3,1.27,0.46,1.7,0.49c0.43,0.03,1.02,0.29,1.76,0.76
			c0.41-0.06,1.05-0.06,1.9,0c0.85,0.06,1.34,0.05,1.49-0.02c0.07-0.04,0.12-0.13,0.14-0.27c-0.35-0.78-1.33-1.68-2.94-2.77
			c-0.4-0.42-0.8-0.85-1.2-1.28c-0.57-0.62-1.71-1.63-3.42-3.07c-1.05-0.57-1.71-1.22-1.98-1.93c-1.06-2.79-0.75-4.54,0.86-5.18
			c0.79-0.32,1.45-0.19,2,0.36c0.55,0.55,0.98,0.83,1.3,0.83c0.32,0,0.81,0.62,1.47,1.85c0.66,1.23,2.08,2.24,4.22,3
			c0.53,1.29,0.97,1.97,1.32,2.08C53.09,302.05,53.5,302.25,53.98,302.55z"/>
		<path class="st0" d="M108.2,377.56c0.67,0.1,1.35,0.19,2.02,0.29c1.09,0.75,1.97,0.79,2.65,0.13c0.67-0.66,1.89-0.74,3.65-0.28
			c0.47-0.08,0.94-0.16,1.41-0.24c1.02-0.01,3.27,0.69,6.76,1.92c0.98,0.18,1.7,0.23,2.15,0.14c0.13-0.01,0.24,0.02,0.33,0.08
			c0.3,0.3,0.61,0.6,0.91,0.9c0.57,0.38,1.39,0.75,2.46,1.1c1.07,0.35,2.02,0.79,2.87,1.31c0.96,0.55,1.92,1.09,2.88,1.62
			c0.18,0.11,0.48,0.43,0.92,0.97c0.44,0.54,1.06,1.05,1.88,1.52c1,0.57,1.72,1.44,2.16,2.61c0.44,1.17,0.5,2.05,0.16,2.64
			c-0.63,1.08-2.03,1.78-4.21,2.04c-2.18,0.26-3.78,0.18-4.77-0.21c-1.17,0.11-2.02,0.11-2.55,0.01c-0.53-0.1-1.12-0.13-1.78-0.08
			c-0.66,0.05-1.13-0.02-1.42-0.19c-0.19-0.12-0.3-0.25-0.34-0.39c-0.04-0.14-0.15-0.27-0.34-0.39c-0.75-0.47-2.01-0.33-3.8,0.39
			c-0.4-0.31-0.8-0.62-1.2-0.93c-1.05-0.16-1.85-0.11-2.39,0.17c-0.54,0.27-1.19,0.16-1.94-0.35c-2.61,0.03-4.24-0.2-4.85-0.63
			c-0.09-0.07-0.37-0.36-0.83-0.9c-0.62,0.05-1.06,0.26-1.33,0.61c-0.3,0.39-0.84,0.34-1.64-0.14c-0.45-0.03-0.9-0.06-1.36-0.1
			c-0.21-0.21-0.42-0.41-0.62-0.62c-0.73-0.01-1.46-0.03-2.19-0.05c-0.7-0.53-1.54-0.93-2.53-1.19c-0.4,0.3-0.93,0.67-1.6,1.11
			c-0.66,0.43-1.02,0.68-1.07,0.74c-0.75,0.9,0.11,2.36,2.65,4.28c1.24,0.76,2.48,1.5,3.73,2.23c0.92,0.67,1.91,1.12,2.95,1.36
			c1.05,0.24,2.03,0.68,2.96,1.31c0.3,0.2,0.78,0.44,1.47,0.7c0.2,0.23,0.4,0.46,0.6,0.69c0.7-0.27,1.65-0.29,2.87-0.08
			c1.21,0.21,2.09,0.48,2.64,0.83c0.32,0.06,0.63,0.11,0.95,0.17c0.47-0.28,0.94-0.36,1.43-0.25c0.28,0,0.55,0.01,0.83,0.01
			c0.57-0.03,1.03,0.06,1.38,0.28c0.35,0.21,0.7,0.42,1.05,0.63c0.12,0.03,0.24,0.05,0.36,0.08c1.16-0.53,2.32-0.56,3.49-0.09
			c1.17,0.47,2,0.6,2.48,0.41c0.48-0.19,1.09-0.12,1.84,0.19c0.74,0.32,1.47,0.41,2.18,0.26c0.71-0.14,1.52-0.2,2.42-0.18
			c0.9,0.02,1.54,0.01,1.91-0.02c0.37-0.03,0.66,0,0.86,0.1c0.3,0.16,0.36,0.39,0.19,0.71c-0.18,0.32-0.16,0.53,0.04,0.63
			c0.2,0.1,0.34,0.08,0.42-0.06c0.08-0.14,0.12-0.34,0.14-0.61c0.07-0.12,0.14-0.25,0.2-0.37c0.29-0.53,0.89-0.68,1.78-0.45
			c1.4,0.05,2.81,0.09,4.2,0.11c0.49-0.7,1.01-1,1.55-0.9c0.54,0.1,0.97,0.12,1.3,0.08c0.33-0.05,0.65,0,0.95,0.14
			c0.65,0.3,0.84,0.72,0.57,1.26c-0.36,0.41-0.72,0.82-1.08,1.23c-0.12,0.55-0.23,1.09-0.35,1.64c-0.11,0.22-0.5,0.4-1.17,0.56
			c-0.68,0.15-1.34,0.56-1.99,1.21c-0.65,0.65-1.2,0.92-1.65,0.79c-0.15-0.07-0.31-0.15-0.46-0.22c-1.28,0.24-2.23,0.28-2.84,0.14
			c-0.61-0.14-1.15-0.13-1.64,0.04c-1.25,0.26-2.51,0.5-3.77,0.73c-0.72,0.09-1.34,0.17-1.86,0.26c-0.52,0.09-0.89,0.08-1.09-0.03
			c-0.13-0.25-0.25-0.5-0.38-0.75c0.04-0.07-0.04-0.16-0.25-0.27c-0.52-0.28-0.96-0.24-1.33,0.11c-0.37,0.35-0.86,0.57-1.46,0.65
			c-1.84-0.36-3.12-0.49-3.84-0.34c-0.18-0.05-0.35-0.11-0.53-0.16c-0.47-0.27-0.93-0.53-1.39-0.8c-0.67-0.39-1.34-0.33-2.02,0.19
			c-0.68,0.51-1.66,0.46-2.94-0.17c-1.28-0.63-2.27-0.96-2.98-0.98c-0.15,0-0.42-0.07-0.83-0.23c-0.4-0.16-1.3-0.34-2.69-0.56
			c-2.49-0.88-4.97-1.81-7.44-2.79c-0.62-0.19-1.01-0.34-1.16-0.44c-0.75-0.43-1.5-0.86-2.25-1.3c-0.3-0.22-0.5-0.56-0.6-1.04
			c-0.1-0.47-0.2-0.75-0.3-0.82c-0.52-0.23-1.04-0.46-1.55-0.69c-1.13-0.54-2.14-1.15-3.02-1.83c-0.49-0.38-0.93-0.9-1.33-1.58
			c-0.4-0.67-0.72-1.19-0.98-1.55c-1.39-1.11-1.77-2.61-1.14-4.46c-0.31-0.2-0.61-0.4-0.92-0.61c-0.18-0.16,0.12-1.77,0.99-4.83
			c-0.06-0.48-0.33-1.02-0.82-1.63c-0.49-0.61-0.51-1.16-0.07-1.64c1.23-1.35,2.48-1.88,3.76-1.61c1.28,0.27,2.07,0.31,2.37,0.14
			c1.01-0.53,2.01-1.07,3.01-1.61c0.25,0.05,0.74-0.07,1.45-0.37c1.06-0.23,2.11-0.47,3.16-0.71
			C106.02,378.17,106.87,377.95,108.2,377.56z M124.44,384.92c-0.34-0.08-0.68-0.16-1.02-0.25c-0.23-0.06-0.96-0.12-2.21-0.22
			c-1.25-0.1-2.4-0.29-3.46-0.57c-1.06-0.28-2.51-0.09-4.38,0.55c-1.87,0.64-2.89,1.04-3.04,1.23c-0.15,0.19-0.09,0.39,0.18,0.59
			c0.96,0.34,1.92,0.66,2.88,0.98c1.09,0.34,2.18,0.54,3.28,0.61c1.09,0.07,2.59,0.27,4.49,0.57c0.28-0.01,0.56-0.02,0.83-0.03
			c0.18-0.07,0.78-0.03,1.78,0.12c1,0.15,1.8,0.17,2.4,0.07c0.28,0.08,0.55,0.16,0.83,0.24c1.4-0.41,2.56-0.47,3.5-0.17
			c0.94,0.29,1.48,0.33,1.61,0.13c0.26-0.41-0.04-0.88-0.91-1.41c-0.37-0.23-1.03-0.4-1.98-0.52c-0.52-0.33-1.05-0.66-1.57-1
			c-0.18-0.12-0.82-0.24-1.91-0.37C125.3,385.3,124.87,385.11,124.44,384.92z"/>
		<path class="st0" d="M147.55,413.59c0.06-0.13,0.12-0.25,0.19-0.38c0.25-0.51,0.5-0.88,0.74-1.12c-0.03-0.72,0.08-1.31,0.31-1.78
			c0.04-0.07,0.55-0.46,1.52-1.17c0.51-0.46,1.01-0.92,1.51-1.38c0.67-0.49,1.04-0.75,1.11-0.76c-0.03-0.72-0.02-1.11,0.02-1.18
			c0.4-0.83,1.07-1.38,1.98-1.64c0.91-0.26,1.82-0.79,2.73-1.58c1.02-0.9,2.03-1.81,3.03-2.72c1.48-1.13,2.94-2.27,4.39-3.42
			c0.1-0.09,0.46-0.29,1.07-0.61c0.62-0.32,1.13-0.6,1.55-0.85c0.41-0.25,1-0.61,1.76-1.09c0.25,0.06,0.51,0.11,0.76,0.16
			c0.25-0.08,0.41-0.19,0.47-0.34c0.03-0.07,0.06-0.41,0.09-1c1.28-0.76,2.54-1.53,3.79-2.31c0.81-0.62,1.62-1.25,2.42-1.88
			c0.71-0.47,1.38-0.7,2-0.7c1.45-1.07,2.56-1.64,3.35-1.72c0.54-0.62,1.32-1.23,2.34-1.83c0.44,0.1,0.88,0.2,1.32,0.3
			c0.41-0.46,0.77-0.79,1.09-0.98c0.18-0.36,0.35-0.73,0.53-1.1c-0.08,0.23,0.06,0.2,0.4-0.1c0.35-0.29,0.91-0.86,1.69-1.72
			c0.79-0.41,1.58-0.82,2.36-1.24c0.26-0.22,0.52-0.43,0.78-0.65c0.3-0.2,0.82-0.62,1.54-1.25c0.72-0.04,1.39-0.31,2.01-0.81
			c0.55-0.2,1.1-0.41,1.65-0.61c0.04-0.45,0.84-1.25,2.36-2.43c0.79-0.08,1.54-0.27,2.25-0.55c0.32,0,0.63-0.01,0.95-0.02
			c0.37-1.36,1.14-2.16,2.3-2.42c0.29-0.1,0.58-0.2,0.86-0.29c0.74-0.16,1.15-0.24,1.23-0.22c0.15-0.01,0.31-0.01,0.46-0.02
			c0.53-0.05,1.13,0,1.79,0.13c1.53,0.32,2.79,1.12,3.83,2.43c1.04,1.31,1.44,2.64,1.18,4.02c-0.11,0.55-0.54,1.07-1.31,1.54
			c-0.12,0.14-0.24,0.28-0.35,0.42c-1.04,2.05-1.71,3.04-1.98,3c-0.18-0.03-0.45,0.04-0.8,0.22c-0.36,1.27-0.61,1.98-0.73,2.12
			c-0.83-0.04-1.43,0.76-1.79,2.4c-0.14,0.21-0.56,0.55-1.26,1c-0.7,0.45-1.33,1.14-1.89,2.06c-0.56,0.93-1.03,1.35-1.4,1.27
			c-0.26-0.06-0.51-0.11-0.77-0.17c0,0.31,0,0.61,0,0.92c-0.13,0.55-0.58,1.01-1.35,1.39c-0.77,0.38-1.3,0.84-1.59,1.39
			c-0.29,0.55-1.04,1.12-2.27,1.69c-0.32,0.25-0.65,0.5-0.97,0.75c-0.39,0.32-0.89,0.63-1.49,0.93c-0.6,0.3-1.2,0.85-1.79,1.65
			c-0.9,0.76-1.81,1.52-2.72,2.27c-1.89,1.53-3.21,2.14-3.88,1.87c-0.92,1.37-1.5,2.14-1.72,2.33c-0.22,0.19-0.65,0.29-1.26,0.32
			c-0.62,0.03-1.16,0.23-1.62,0.62c-0.46,0.39-0.91,0.64-1.34,0.76c-0.7,0.56-1.4,1.13-2.1,1.68c-0.91,0.01-1.68,0.31-2.29,0.92
			c-0.88-0.11-1.58,0.23-2.1,1.03c-0.26,0.08-0.65,0.34-1.15,0.76c-1.15,0.36-2.32,0.7-3.49,1.04c-1.69,0.22-2.77,0.76-3.24,1.64
			c-0.47,0.88-1.34,1.09-2.61,0.62c-0.9-0.33-2.11-1.11-3.6-2.34c-0.05-0.02-0.1-0.04-0.16-0.06c-0.38,0.46-1,0.88-1.85,1.28
			c-0.11,0.54-0.22,1.08-0.34,1.62c-0.08,0.18-1.01,1.18-2.81,2.97c0.19,0.73,0.23,1.2,0.14,1.42c-0.23,0.38-0.47,0.77-0.7,1.15
			c-0.08,0.55-0.17,1.1-0.25,1.66c-0.26,1.33,0.14,2.2,1.2,2.62c0.64,0.33,1.27,0.66,1.91,0.99c0.11,0.04,0.93,0.03,2.44-0.05
			c1.18,0.01,2.37,0.01,3.54,0c0.11,0.04,0.15,0.1,0.12,0.17c0.5,0.35,0.92,0.58,1.26,0.69c0.56,0.19,0.96-0.01,1.18-0.61
			c0.09-0.24,0.18-0.49,0.28-0.73c0.48-0.26,0.96-0.35,1.46-0.27c0.5,0.08,1,0.06,1.48-0.08c0.48-0.14,0.84-0.17,1.06-0.1
			c0.28,0.09,0.56,0.18,0.83,0.27c0.84,0.27,1.49-0.27,1.95-1.59c0.25-0.01,0.58-0.07,0.99-0.2c0.33,0.1,0.66,0.2,0.99,0.31
			c0.44,0.14,1.05-0.09,1.82-0.68c0.77-0.59,1.28-0.93,1.56-1.01c1.01,0.21,1.73,0.29,2.17,0.25c2.45-1.72,4.1-2.49,5.03-2.24
			c0.16,0.04,0.33,0.09,0.49,0.13c1.1-0.37,1.76-0.8,1.98-1.26c0.22-0.46,0.58-0.71,1.08-0.75c0.5-0.04,0.97-0.13,1.41-0.27
			c0.44-0.14,0.71-0.2,0.82-0.17c0.8,0.19,1.15,0.5,1.04,0.93c-0.22,0.52-0.45,1.05-0.67,1.57c0.04,0.63,0.08,1.25,0.12,1.88
			c-0.04,0.15-0.35,0.4-0.94,0.74c-0.59,0.33-0.95,0.77-1.1,1.31c-0.3,1.12-0.74,1.66-1.32,1.6c-0.58-0.06-1.11,0.09-1.6,0.44
			c-0.49,0.35-1.21,0.61-2.15,0.75c-0.95,0.15-1.75,0.51-2.4,1.08c-0.5-0.05-1.01-0.11-1.51-0.16c-0.32,0.04-0.63,0.07-0.95,0.11
			c-1.04,1-2,1.52-2.85,1.57c-0.85,0.05-2.06,0.57-3.65,1.56c-0.17-0.05-0.27-0.04-0.3,0.04c-0.44-0.18-0.89-0.35-1.33-0.53
			c-0.72,0.45-1.36,0.65-1.92,0.6c-0.55-0.05-1.06,0.03-1.52,0.24c-0.46,0.21-1.17,0.29-2.15,0.22c-0.97-0.07-1.63,0.01-1.97,0.23
			c-0.34,0.22-0.75,0.28-1.23,0.15c-0.47-0.12-0.96-0.13-1.45-0.03c-0.5,0.1-0.89,0.1-1.18,0c-0.12-0.04-0.5-0.22-1.16-0.54
			c-0.11-0.04-0.23-0.08-0.34-0.12c-1.15,0.09-2.05,0.02-2.68-0.22c-0.75-0.28-1.32-0.41-1.72-0.4c-0.28-0.28-0.76-0.59-1.44-0.95
			c-0.68-0.35-1.41-0.86-2.18-1.52c-1.03-0.24-1.65-0.41-1.88-0.5c-0.96-0.4-1.89-1.52-2.76-3.36c-0.87-1.85-0.99-3.35-0.43-4.51
			c0.02-0.04-0.16-0.46-0.52-1.26c-0.36-0.8-0.39-1.51-0.09-2.13c0.09-0.18,0.18-0.36,0.27-0.54c0.16-0.19,0.32-0.39,0.48-0.58
			c0.17-0.34,0.34-0.69,0.51-1.03c0.11-0.08,0.21-0.17,0.32-0.25c0.83,0.29,1.26,0.39,1.3,0.32
			C147.91,414.55,147.73,414.07,147.55,413.59z M169.73,405.35c0.62-0.03,1.24-0.07,1.85-0.11c0.43-0.53,1.37-1.02,2.79-1.49
			c1.42-0.47,2.34-0.64,2.79-0.49c0.2,0.07,0.4,0.13,0.6,0.2c0.1-0.26,0.27-0.5,0.51-0.72c0.24-0.21,0.45-0.55,0.61-1
			c0.08-0.23,0.98-0.63,2.66-1.24c0.31-0.28,0.63-0.56,0.94-0.84c0.78-0.85,2.15-1.33,4.11-1.47c1.04-0.91,1.72-1.32,2.05-1.22
			c0.21,0.02,0.41,0.03,0.62,0.05c0.37-0.52,0.92-0.93,1.63-1.23c0.13-0.09,0.26-0.18,0.39-0.27c0.09-0.31,0.19-0.61,0.28-0.92
			c0.02-0.08,0.44-0.3,1.25-0.69c0.81-0.39,1.42-0.79,1.84-1.19c0.42-0.41,0.92-0.68,1.49-0.83c0.57-0.15,1.04-0.54,1.42-1.19
			c0.38,0.05,0.77,0.11,1.15,0.16c0.14-0.5,0.27-0.82,0.41-0.95c0.1-0.18,0.2-0.37,0.29-0.55c0.35-0.41,1.5-1.43,3.36-3.1
			c0.55-0.64,1.09-1.27,1.62-1.91c0.06-0.23,0.32-0.47,0.78-0.72c0.46-0.25,0.76-0.68,0.91-1.31c0.33-0.6,0.66-1.21,0.99-1.82
			c0.21-0.9,0.14-1.38-0.2-1.46c-0.5,0.18-0.95,0.28-1.35,0.32c-0.4,0.03-0.93,0.65-1.61,1.85c-1.39-0.03-2.3,0.34-2.72,1.12
			c-0.42,0.78-1.16,1.36-2.22,1.71c-0.22,0.19-0.44,0.38-0.67,0.58c-0.21,0.4-0.76,0.74-1.67,1c-0.9,0.26-1.86,0.86-2.88,1.78
			c-3.09,2.02-4.85,3.04-5.14,3.17c-0.31,0.16-0.62,0.32-0.92,0.48c-0.34-0.14-0.67-0.29-1.01-0.43c-0.02,0.67-0.04,1.04-0.07,1.11
			c-0.08,0.23-0.29,0.41-0.64,0.53c-0.35,0.12-0.65,0.31-0.9,0.57c-0.25,0.26-0.65,0.52-1.21,0.79c-0.56,0.27-1.18,0.79-1.85,1.56
			c-0.67,0.77-1.19,1.19-1.53,1.25c-0.32-0.15-0.65-0.3-0.97-0.45c-0.73,0.1-1.16,0.29-1.27,0.59c-0.03,0.29-0.05,0.58-0.08,0.86
			c-0.06,0.15-0.26,0.28-0.6,0.4c-0.34,0.12-0.75,0.44-1.22,0.95c-0.47,0.52-1.43,1.22-2.88,2.09c-1.46,0.87-2.75,1.88-3.88,3.03
			c-1.12,1.15-2.05,1.81-2.76,1.97c0.07,0.11,0.21,0.21,0.41,0.28C167.89,406.41,168.73,406.14,169.73,405.35z"/>
		<path class="st0" d="M194.09,417.05c0.15-0.13,0.29-0.26,0.44-0.39c1.76,0.4,3.04,0.12,3.82-0.81c0.12-0.06,0.25-0.11,0.37-0.17
			c2.02-0.06,3.51-0.33,4.46-0.78c0.95-0.45,2.54-0.72,4.77-0.87c2.23-0.14,3.39-0.23,3.5-0.21c0.32,0.05,1.21,0.56,2.71,1.5
			c1.5,0.94,2.12,2.39,1.82,4.37c-0.21,1.42-0.95,2.68-2.25,3.75c-0.1,0.61-0.19,1.22-0.29,1.84c-0.08,0.15-0.16,0.3-0.24,0.45
			c-1.02,0.34-1.59,0.8-1.68,1.39c-0.03,0.16-0.05,0.32-0.08,0.47c-0.04,0.58-0.08,1.16-0.11,1.74c-0.99,1.09-1.99,2.17-3.01,3.25
			c-1.03,0.16-1.57,0.36-1.61,0.59c-0.03,0.16,0.18,0.38,0.63,0.68c0.45,0.29,0.64,0.64,0.58,1.03c-0.08,0.43-0.39,1.21-0.95,2.34
			c0.1,0.1,0.21,0.15,0.33,0.17c0.12,0.02,0.24,0.04,0.35,0.06c0.29-0.28,0.8-0.44,1.53-0.49c0.32-0.09,0.63-0.19,0.95-0.28
			c0.19-0.42,0.44-0.7,0.77-0.86c0.35,0.05,0.7,0.1,1.05,0.15c0.47,0.07,0.75-0.22,0.85-0.85c0.03-0.24,1.48-1.07,4.26-2.57
			c2.77-1.5,4.42-2.51,5.02-2.97c0.6-0.46,1.22-0.83,1.88-1.11c0.66-0.28,1.06-0.6,1.21-0.94c0.15-0.35,0.5-0.66,1.07-0.93
			c0.56-0.27,1.02-0.57,1.39-0.88c0.36-0.31,0.86-0.58,1.5-0.81c0.63-0.23,1.3-0.67,1.98-1.3c0.68-0.64,2.09-1.5,4.17-2.64
			c0.34-0.18,0.74-0.52,1.2-1.02c0.46-0.5,1.28-0.99,2.46-1.49c1.18-0.5,2.3-1.13,3.35-1.89c1.06-0.76,2.82-1.11,5.31-1.12
			c1.43,0,2.82,0.49,4.21,1.48c1.39,0.99,2.11,2.01,2.15,3.09c0.02,0.56-0.1,0.99-0.37,1.3c-0.27,0.31-0.7,0.83-1.31,1.56
			c-0.61,0.73-1.2,1.1-1.75,1.11c-0.5-0.11-1-0.23-1.5-0.34c-1.04,0.77-2.12,1.15-3.23,1.14c-0.53-0.08-1.05-0.17-1.58-0.25
			c-1,0.47-1.82,0.71-2.43,0.74c-0.61,0.03-1.13,0.25-1.57,0.68c-0.43,0.43-0.9,0.66-1.4,0.71c-0.51,0.04-1.08,0.21-1.7,0.51
			c-0.46,0.14-0.91,0.28-1.37,0.42c-0.61,0.97-1.87,1.65-3.78,2.02c-0.71,0.44-1.38,0.95-2,1.55c-0.01,0.12-0.29,0.26-0.85,0.42
			c-0.56,0.16-1.15,0.48-1.77,0.95c-0.62,0.47-1.11,0.69-1.45,0.66c-0.26-0.02-0.52-0.04-0.78-0.07c-0.5,0.32-0.9,0.84-1.21,1.58
			c-0.31,0.73-1.33,1.17-3.05,1.27c-0.24,0.06-0.63,0.31-1.16,0.75c-0.53,0.44-1.25,0.76-2.17,0.93c-0.47,0.87-1.34,1.51-2.6,1.92
			c-0.41,0.37-0.83,0.74-1.25,1.11c-0.36,0.36-0.99,0.67-1.92,0.92c-0.92,0.26-1.43,0.42-1.5,0.49c-0.07,0.07-0.54,0.54-1.43,1.4
			c-0.88,0.86-1.8,1.36-2.72,1.5c-0.93,0.14-1.87,0.44-2.84,0.91c-0.97,0.47-1.76,0.65-2.37,0.54c-2.14-0.37-4.2-1.92-6.09-4.64
			c-1.89-2.71-2.7-4.38-2.56-4.96c0.53-2.18,1.39-3.78,2.57-4.82c1.18-1.04,1.97-2.1,2.4-3.18c0.42-1.08,0.95-1.98,1.58-2.71
			c0.3-0.57,0.61-1.14,0.91-1.72c0.28-0.23,0.56-0.46,0.84-0.69c0.45-0.24,0.9-0.7,1.33-1.39c0.2-0.29,0.41-0.57,0.61-0.86
			c0.15-0.7-0.08-1.11-0.67-1.23c-0.76-0.15-1.49,0.07-2.19,0.67c-0.13,0.06-0.25,0.11-0.38,0.17c-1.31-0.51-1.99-0.78-2.04-0.79
			c-0.38-0.08-0.88,0.45-1.5,1.58c-0.31,0.34-0.92,0.47-1.83,0.39c-0.91-0.08-2.02,0.32-3.37,1.19c-0.16,0.04-0.32,0.09-0.48,0.13
			c-0.52-0.04-0.87-0.05-1.06-0.01c-1.02,0.7-1.7,1-2.03,0.92c-0.33-0.08-0.62-0.39-0.85-0.93c-0.23-0.54-0.59-0.99-1.07-1.37
			c-0.48-0.38-0.67-0.74-0.56-1.08c0.26-0.89,1.83-1.68,4.64-2.46c0.62-0.17,1.03-0.38,1.21-0.63c0.18-0.24,0.95-0.24,2.31,0
			C192.88,417.98,193.37,417.66,194.09,417.05z"/>
		<path class="st0" d="M259.11,424.12c0.56-0.37,1.12-0.74,1.67-1.11c1.31-0.16,1.99-0.7,2.03-1.63c0.04-0.92,0.88-1.78,2.49-2.58
			c0.29-0.36,0.59-0.73,0.88-1.09c0.75-0.67,2.87-1.62,6.29-2.96c0.85-0.5,1.41-0.93,1.68-1.28c0.09-0.09,0.19-0.14,0.3-0.16
			c0.43,0.03,0.86,0.06,1.29,0.08c0.68-0.09,1.54-0.34,2.57-0.76c1.03-0.42,2.03-0.71,3.02-0.86c1.09-0.21,2.17-0.42,3.25-0.64
			c0.21-0.03,0.66,0.01,1.35,0.13c0.7,0.12,1.51,0.1,2.45-0.07c1.14-0.21,2.27-0.02,3.41,0.57c1.14,0.59,1.79,1.21,1.94,1.87
			c0.28,1.21-0.27,2.62-1.71,4.2c-1.44,1.59-2.69,2.54-3.69,2.88c-0.79,0.83-1.42,1.37-1.88,1.63c-0.46,0.26-0.92,0.62-1.37,1.08
			c-0.46,0.46-0.85,0.71-1.18,0.76c-0.22,0.03-0.4,0.01-0.52-0.07c-0.13-0.08-0.3-0.11-0.52-0.07c-0.88,0.13-1.72,1.04-2.54,2.73
			c-0.51,0.03-1.02,0.06-1.53,0.08c-0.88,0.56-1.44,1.11-1.65,1.66c-0.21,0.55-0.77,0.88-1.67,0.99c-1.9,1.71-3.26,2.59-4,2.66
			c-0.12,0.01-0.52-0.03-1.23-0.12c-0.42,0.44-0.6,0.88-0.56,1.32c0.05,0.48-0.39,0.8-1.3,0.96c-0.35,0.27-0.71,0.54-1.06,0.81
			c-0.29-0.02-0.59-0.03-0.88-0.05c-0.54,0.46-1.09,0.92-1.64,1.38c-0.88,0.06-1.77,0.32-2.67,0.77c-0.09,0.49-0.22,1.1-0.41,1.85
			c-0.19,0.75-0.28,1.17-0.28,1.25c0.07,1.15,1.69,1.66,4.87,1.42c1.43-0.25,2.85-0.5,4.26-0.78c1.13-0.1,2.17-0.41,3.1-0.9
			c0.94-0.5,1.96-0.81,3.09-0.94c0.35-0.04,0.88-0.18,1.56-0.43c0.31,0.04,0.61,0.09,0.92,0.13c0.33-0.65,1.02-1.28,2.06-1.9
			c1.04-0.63,1.88-0.99,2.52-1.08c0.27-0.16,0.54-0.32,0.82-0.48c0.15-0.51,0.45-0.88,0.88-1.11c0.21-0.17,0.41-0.35,0.62-0.52
			c0.41-0.39,0.81-0.61,1.21-0.68c0.4-0.07,0.81-0.13,1.21-0.2c0.11-0.06,0.22-0.12,0.32-0.18c0.5-1.14,1.33-1.9,2.52-2.3
			c1.19-0.4,1.89-0.83,2.12-1.28c0.23-0.45,0.73-0.79,1.5-1.03c0.77-0.23,1.37-0.63,1.8-1.19c0.43-0.56,0.98-1.12,1.67-1.67
			c0.69-0.56,1.15-0.97,1.41-1.23c0.25-0.26,0.49-0.42,0.71-0.47c0.33-0.07,0.54,0.06,0.63,0.41c0.09,0.35,0.24,0.5,0.47,0.45
			c0.22-0.05,0.31-0.15,0.27-0.31c-0.04-0.15-0.15-0.34-0.31-0.54c-0.03-0.14-0.07-0.27-0.1-0.41c-0.15-0.58,0.19-1.07,1.01-1.47
			c1.08-0.85,2.15-1.71,3.2-2.58c-0.12-0.84,0.05-1.39,0.52-1.66c0.47-0.27,0.81-0.52,1.03-0.77c0.22-0.24,0.48-0.41,0.8-0.49
			c0.69-0.19,1.12,0.01,1.3,0.58c0.02,0.54,0.04,1.07,0.05,1.61c0.29,0.48,0.58,0.96,0.88,1.45c0.07,0.23-0.09,0.62-0.49,1.16
			c-0.4,0.54-0.61,1.26-0.64,2.16c-0.03,0.9-0.26,1.45-0.68,1.64c-0.17,0.04-0.33,0.09-0.5,0.13c-0.79,0.99-1.47,1.62-2.02,1.9
			c-0.55,0.28-0.95,0.63-1.19,1.06c-0.75,0.98-1.52,1.97-2.3,2.94c-0.47,0.52-0.87,0.98-1.2,1.38c-0.32,0.4-0.6,0.62-0.83,0.67
			c-0.27-0.11-0.53-0.21-0.8-0.32c-0.02-0.08-0.15-0.09-0.37-0.04c-0.58,0.12-0.88,0.43-0.91,0.93c-0.04,0.5-0.25,0.97-0.63,1.42
			c-1.62,0.9-2.65,1.63-3.08,2.2c-0.17,0.07-0.33,0.14-0.5,0.22c-0.53,0.1-1.06,0.2-1.59,0.29c-0.77,0.14-1.22,0.61-1.37,1.43
			c-0.15,0.82-0.91,1.41-2.29,1.75c-1.38,0.35-2.34,0.74-2.88,1.18c-0.11,0.1-0.36,0.22-0.77,0.36c-0.41,0.14-1.19,0.58-2.37,1.31
			c-2.44,0.94-4.91,1.85-7.41,2.72c-0.59,0.26-0.97,0.4-1.16,0.42c-0.85,0.17-1.7,0.33-2.55,0.49c-0.37,0.03-0.75-0.09-1.15-0.38
			c-0.4-0.29-0.66-0.42-0.78-0.41c-0.54,0.17-1.08,0.33-1.62,0.5c-1.2,0.34-2.36,0.54-3.47,0.62c-0.61,0.04-1.3-0.05-2.05-0.29
			c-0.76-0.24-1.35-0.4-1.78-0.5c-1.78,0.09-3.08-0.75-3.88-2.52c-0.36,0.05-0.72,0.11-1.09,0.16c-0.24,0.01-1.12-1.38-2.57-4.18
			c-0.37-0.31-0.94-0.53-1.71-0.65c-0.78-0.13-1.17-0.51-1.17-1.15c-0.03-1.8,0.52-3.01,1.64-3.65c1.12-0.64,1.72-1.13,1.83-1.45
			c0.37-1.05,0.73-2.1,1.09-3.15c0.22-0.13,0.49-0.54,0.8-1.23c0.62-0.86,1.22-1.73,1.82-2.59
			C257.94,426,258.4,425.28,259.11,424.12z M276.09,419.03c-0.31,0.16-0.61,0.32-0.92,0.48c-0.21,0.11-0.79,0.53-1.78,1.26
			c-0.98,0.73-1.97,1.34-2.94,1.82c-0.97,0.48-1.91,1.56-2.85,3.24c-0.93,1.68-1.41,2.64-1.39,2.88c0.02,0.24,0.2,0.35,0.54,0.32
			c0.93-0.38,1.86-0.76,2.79-1.14c1.03-0.46,1.98-1.01,2.83-1.67c0.85-0.65,2.09-1.47,3.7-2.47c0.2-0.19,0.4-0.37,0.59-0.56
			c0.09-0.17,0.56-0.52,1.4-1.06c0.84-0.54,1.45-1.03,1.82-1.49c0.26-0.12,0.52-0.23,0.78-0.35c0.75-1.2,1.57-1.99,2.47-2.37
			c0.9-0.38,1.32-0.7,1.28-0.93c-0.09-0.47-0.64-0.62-1.65-0.47c-0.43,0.07-1.03,0.36-1.82,0.88c-0.62,0.09-1.23,0.18-1.85,0.26
			c-0.21,0.03-0.76,0.35-1.66,0.95C276.99,418.75,276.54,418.89,276.09,419.03z"/>
		<path class="st2" d="M375.23,375.31c0,0.38-0.01,0.76-0.01,1.15c0.01,0.1-0.34,0.66-1.04,1.67c-0.71,1.01-1.35,2.67-1.98,4.97
			c-0.63,2.31-1.36,3.82-2.14,4.52c-0.09,0.06-0.22,0.35-0.39,0.87c-0.17,0.52-0.44,1.02-0.81,1.5c-0.37,0.48-0.72,1.26-1.05,2.36
			c-0.34,1.1-0.66,1.85-0.95,2.27c-0.29,0.42-0.39,1.21-0.3,2.38c-0.43,1.72-1.1,2.94-2,3.65c-0.11,0.25-0.07,0.53,0.12,0.84
			c0.91,1.48,2.25,1.72,3.98,0.69c0.2-0.12,0.42-0.3,0.67-0.54c0.25-0.25,0.88-0.73,1.88-1.46c0.99-0.73,1.62-1.33,1.87-1.78
			c0.25-0.45,0.89-0.99,1.89-1.65c0.1-0.06,0.19-0.13,0.29-0.19c0.53-0.3,1.05-0.59,1.58-0.89c1.49-1.33,2.95-2.68,4.4-4.05
			c0.26-0.33,0.51-0.66,0.76-0.99c0.79-0.52,1.58-1.04,2.37-1.57c0.46-0.34,0.92-0.89,1.37-1.66c0.45-0.77,0.83-1.33,1.14-1.67
			c0.04-0.13,0.1-0.23,0.19-0.3c0.64-0.44,1.27-0.88,1.9-1.33c0.63-0.81,1.25-1.62,1.87-2.43c0.96-0.94,1.91-1.88,2.86-2.84
			c0.38-0.43,1.79-1.67,4.17-3.8c0.42-0.38,1.25-1.01,2.45-1.9c0.14-0.02,0.36-0.16,0.65-0.44c0.17-0.16,0.62-0.66,1.34-1.51
			c0.72-0.86,1.41-1.61,2.07-2.25c2.78-2.73,4.69-3.85,5.85-3.24c1.11,0.17,2.22,0.33,3.33,0.48c1.24,0.11,1.98,0.26,2.22,0.48
			c0.13,0.12,0.27,0.25,0.4,0.37c0.11,0.3,0.22,0.6,0.32,0.91c0.25,0.15,0.5,0.3,0.75,0.45c0.93,0.85,1.18,1.66,0.75,2.42
			c-0.43,0.76-0.69,1.35-0.76,1.78c-0.04,0.04-0.08,0.09-0.13,0.13c-1.22,1.27-2.82,1.82-4.78,1.65c-0.18,0.32-0.36,0.65-0.55,0.97
			c-0.48,0.28-0.97,0.55-1.45,0.83c-0.2,0.48-0.67,1.07-1.4,1.77c-0.26,0.25-1.13,0.6-2.61,1.03c-0.09,0.08-0.18,0.16-0.26,0.24
			c-0.26,0.24-0.58,0.64-0.95,1.2c-0.37,0.56-0.65,0.92-0.83,1.08c-0.09,0.08-0.32,0.2-0.69,0.37c-0.37,0.17-0.65,0.33-0.82,0.49
			c-0.36,0.31-1.14,1.34-2.4,3.05c-2.83,3.03-5.76,5.97-8.77,8.83c-0.64,0.38-1.29,0.77-1.94,1.14c-1.29,0.95-2.29,2.05-2.99,3.29
			c-0.32,0.57-0.58,0.93-0.77,1.06c-0.9,0.43-1.81,0.86-2.72,1.28c-3.32,2.87-6.73,5.64-10.23,8.31c-0.29,0.22-0.78,0.3-1.49,0.24
			c-0.7-0.06-1.16-0.03-1.36,0.09c-0.06,0.13-0.06,0.52-0.02,1.16c0.05,0.65-0.42,1.26-1.41,1.82c-2.35,1.32-4.41,1.92-6.11,1.81
			c-0.15-0.01-0.4,0.08-0.77,0.27c-0.58,0.19-1.16,0.37-1.73,0.56c-0.08-0.14-0.54-0.36-1.38-0.66c-0.5-0.36-1-0.72-1.5-1.07
			c-0.51-0.2-1.01-0.39-1.52-0.59c-0.85-0.34-1.54-1.02-2.07-2.01c-1.6-2.99-1.92-5.31-1.01-6.97c0.91-1.66,1.3-2.68,1.22-3.05
			c0.33-2.23,1.64-5.33,3.72-9.36c0.55-1.32,1.08-2.63,1.6-3.95c0.05-0.12,0.14-0.28,0.26-0.48c0.13-0.19,0.63-1.16,1.47-2.92
			c0.83-1.75,1.45-3.01,1.88-3.77c0.43-0.76,1-1.9,1.69-3.44c0.61-1.29,1.2-2.57,1.78-3.87c0.62-1.92,1.87-4.54,3.61-7.91
			c0.04-0.19,0.09-0.37,0.13-0.56c0.34-0.42,0.68-0.83,1.02-1.25c0.07-0.39,0.14-0.78,0.21-1.17c0.32-0.87,0.92-1.66,1.8-2.39
			c0.9-2.02,1.75-4.04,2.56-6.08c0.5-0.84,0.99-1.68,1.47-2.53c0.45-0.95,0.92-2.04,1.41-3.25c0.49-1.21,1.11-2.39,1.88-3.54
			c0.31-0.62,0.61-1.23,0.91-1.85c0.08-0.6,0.15-1.2,0.23-1.8c0.09-0.44,0.39-1.2,0.88-2.28c0.49-1.08,0.78-1.98,0.88-2.69
			c0.1-0.71,0.46-1.84,1.06-3.41c0.59-1.57,0.44-2.72-0.43-3.46c-0.59-0.5-1.25-0.41-2,0.26c-0.75,0.67-1.43,1.09-2.02,1.27
			c-0.6,0.18-0.92,0.3-0.99,0.36c-0.82,0.96-1.65,1.91-2.49,2.85c-0.26,0.16-0.53,0.32-0.79,0.47c-0.78,0.52-1.27,0.87-1.47,1.06
			c-0.42,0.42-0.79,0.92-1.12,1.5c-0.33,0.58-0.62,1-0.89,1.25c-0.64,0.36-1.28,0.72-1.92,1.08c-0.25,0.4-0.83,1.54-1.79,3.39
			c-0.13,0.17-0.25,0.34-0.38,0.5c-0.05,0.48-0.18,0.82-0.39,1c-0.47,0.36-0.95,0.73-1.43,1.09c-0.51,1.01-1.04,2.01-1.58,3.01
			c-0.25,0.84-0.55,1.51-0.9,1.99c-0.35,0.49-0.59,0.97-0.74,1.45c-0.15,0.48-0.37,0.84-0.66,1.06c-0.6,0.26-1.2,0.52-1.8,0.77
			c-0.22,0.17-0.35,0.53-0.38,1.09c-0.03,0.56-0.16,0.92-0.39,1.09c-1.62,1.2-3.46,0.42-5.51-2.3c-0.71-0.94-0.94-2.28-0.74-4.01
			c0.2-1.74,0.7-2.91,1.54-3.56c1.22-1.22,2.42-2.46,3.59-3.72c0.13-0.11,0.65-0.43,1.53-0.96c0.07-0.06,0.13-0.11,0.2-0.17
			c0.27-0.6,0.53-1.2,0.79-1.8c0.29-0.46,0.5-0.76,0.63-0.87c0.54-0.42,1.07-0.84,1.61-1.27c1.05-1.22,2.08-2.46,3.09-3.71
			c1.5-1.19,2.99-2.41,4.45-3.67c1.37-1.13,2.24-1.86,2.63-2.16c0.33-0.3,0.66-0.6,0.99-0.9c1.22-1.35,3.81-1.83,7.86-1.61
			c0.37,0.07,1.3,0.06,2.82-0.06c1.51-0.12,2.98,0.38,4.41,1.52c0.7,0.56,1.15,1.6,1.32,3.12c0.13,0.23,0.25,0.46,0.38,0.69
			c0.12,0.23,0.36,1.44,0.63,3.64c0.27,2.2-0.15,3.94-1.24,5.17c-0.38,0.36-0.76,0.73-1.14,1.08c-0.33,0.37-0.48,0.71-0.43,1.02
			c-0.51,2.03-1.05,4.05-1.64,6.08c-0.21,1.2-0.66,2.56-1.39,4.06c-0.11,0.39-0.22,0.78-0.34,1.18c-0.29,0.39-0.58,0.79-0.88,1.18
			c-0.09,0.2-0.17,0.85-0.25,1.95c-0.08,1.1-0.29,1.81-0.64,2.12c-0.54,0.44-1.08,0.87-1.63,1.3c-0.46,0.41-0.84,1.38-1.15,2.92
			c-0.32,1.54-0.76,2.99-1.31,4.34c-0.08,0.54-0.17,1.09-0.26,1.63c-0.19,0.26-0.64,0.88-1.37,1.85c-0.73,0.97-1.16,1.78-1.27,2.43
			c-0.11,0.65-0.45,1.32-1,1.99C375.49,374.69,375.22,375.12,375.23,375.31z"/>
		<path class="st0" d="M412.29,351.83c0.12-0.68,0.24-1.35,0.35-2.03c0.8-1.09,0.87-1.98,0.21-2.66c-0.65-0.68-0.7-1.9-0.18-3.69
			c-0.06-0.48-0.13-0.95-0.2-1.43c0.03-1.03,0.8-3.3,2.17-6.87c0.22-1,0.29-1.73,0.21-2.19c0-0.14,0.03-0.25,0.09-0.34
			c0.32-0.31,0.64-0.62,0.95-0.94c0.4-0.59,0.81-1.43,1.2-2.53c0.39-1.1,0.87-2.09,1.44-2.97c0.59-1,1.18-2,1.75-3.01
			c0.12-0.19,0.46-0.51,1.02-0.97c0.57-0.46,1.1-1.13,1.61-1.99c0.62-1.06,1.53-1.83,2.74-2.32c1.21-0.49,2.11-0.58,2.71-0.23
			c1.08,0.63,1.75,2.08,1.95,4.36c0.19,2.28,0.05,3.95-0.38,4.98c0.08,1.21,0.04,2.1-0.08,2.64c-0.12,0.55-0.17,1.16-0.14,1.84
			c0.03,0.68-0.06,1.17-0.25,1.47c-0.13,0.2-0.26,0.32-0.41,0.36c-0.15,0.04-0.28,0.16-0.41,0.36c-0.51,0.78-0.41,2.08,0.27,3.91
			c-0.33,0.42-0.66,0.83-0.99,1.24c-0.2,1.08-0.17,1.9,0.09,2.44c0.26,0.55,0.12,1.21-0.43,1.98c-0.05,2.66-0.34,4.32-0.8,4.93
			c-0.07,0.1-0.38,0.38-0.94,0.85c0.04,0.62,0.23,1.08,0.58,1.35c0.39,0.3,0.32,0.85-0.2,1.66c-0.04,0.46-0.09,0.91-0.14,1.37
			c-0.22,0.21-0.43,0.42-0.65,0.63c-0.04,0.74-0.08,1.47-0.12,2.21c-0.56,0.7-0.99,1.55-1.29,2.55c0.3,0.41,0.66,0.94,1.08,1.61
			c0.42,0.67,0.66,1.03,0.73,1.08c0.9,0.76,2.4-0.1,4.44-2.65c0.81-1.25,1.6-2.5,2.39-3.77c0.71-0.93,1.2-1.93,1.48-3
			c0.28-1.07,0.76-2.07,1.44-3.03c0.21-0.3,0.47-0.8,0.76-1.51c0.24-0.21,0.49-0.41,0.73-0.62c-0.25-0.71-0.24-1.69,0.01-2.94
			c0.25-1.25,0.56-2.16,0.93-2.72c0.07-0.33,0.13-0.65,0.2-0.98c-0.27-0.48-0.34-0.97-0.21-1.47c0.01-0.29,0.03-0.57,0.04-0.86
			c-0.01-0.59,0.1-1.07,0.33-1.44c0.23-0.36,0.45-0.73,0.68-1.09c0.03-0.13,0.06-0.25,0.09-0.38c-0.5-1.2-0.5-2.4,0.02-3.63
			c0.52-1.23,0.68-2.1,0.5-2.6c-0.18-0.5-0.09-1.14,0.26-1.93c0.35-0.78,0.46-1.55,0.34-2.29c-0.12-0.74-0.16-1.59-0.11-2.54
			c0.05-0.95,0.06-1.62,0.04-2.02c-0.02-0.39,0.02-0.7,0.13-0.91c0.17-0.32,0.41-0.4,0.73-0.22c0.32,0.18,0.53,0.16,0.65-0.06
			c0.11-0.22,0.1-0.36-0.05-0.44c-0.14-0.08-0.35-0.12-0.62-0.13c-0.12-0.07-0.25-0.14-0.37-0.2c-0.53-0.29-0.67-0.92-0.41-1.88
			c0.1-1.49,0.18-2.99,0.24-4.48c-0.7-0.5-0.99-1.04-0.88-1.62c0.12-0.58,0.16-1.05,0.12-1.4c-0.04-0.35,0.02-0.69,0.17-1.02
			c0.32-0.71,0.76-0.93,1.3-0.66c0.41,0.37,0.82,0.74,1.23,1.11c0.55,0.1,1.11,0.21,1.66,0.31c0.22,0.11,0.4,0.52,0.54,1.24
			c0.14,0.72,0.53,1.42,1.18,2.09c0.65,0.67,0.9,1.25,0.76,1.74c-0.08,0.17-0.16,0.34-0.24,0.51c0.2,1.36,0.22,2.38,0.06,3.03
			c-0.16,0.65-0.17,1.23-0.01,1.74c0.22,1.32,0.43,2.65,0.63,3.98c0.06,0.75,0.13,1.41,0.21,1.96c0.08,0.55,0.05,0.93-0.06,1.16
			c-0.26,0.14-0.52,0.28-0.78,0.42c-0.07-0.04-0.17,0.05-0.28,0.27c-0.3,0.55-0.28,1.02,0.07,1.4c0.34,0.38,0.55,0.89,0.62,1.51
			c-0.43,1.94-0.6,3.28-0.47,4.03c-0.06,0.18-0.12,0.37-0.18,0.55c-0.29,0.49-0.58,0.98-0.87,1.47c-0.42,0.71-0.38,1.4,0.13,2.1
			c0.5,0.7,0.42,1.72-0.27,3.05c-0.69,1.33-1.06,2.36-1.1,3.09c0,0.15-0.09,0.44-0.26,0.86c-0.18,0.42-0.39,1.34-0.66,2.77
			c-0.98,2.56-2.01,5.11-3.09,7.63c-0.21,0.64-0.37,1.03-0.49,1.18c-0.46,0.77-0.93,1.53-1.4,2.29c-0.23,0.3-0.59,0.51-1.08,0.61
			c-0.49,0.1-0.77,0.2-0.85,0.3c-0.25,0.53-0.5,1.05-0.76,1.57c-0.59,1.14-1.24,2.16-1.95,3.04c-0.4,0.49-0.95,0.94-1.64,1.33
			c-0.7,0.4-1.24,0.72-1.61,0.98c-1.17,1.39-2.7,1.76-4.57,1.11c-0.21,0.31-0.43,0.61-0.64,0.91c-0.16,0.18-1.8-0.14-4.88-1.04
			c-0.48,0.05-1.04,0.32-1.68,0.8c-0.64,0.48-1.19,0.5-1.67,0.05c-1.34-1.24-1.85-2.5-1.55-3.77c0.31-1.27,0.37-2.06,0.21-2.36
			c-0.52-1.01-1.04-2.02-1.56-3.02c0.06-0.25-0.05-0.74-0.34-1.45c-0.21-1.06-0.42-2.12-0.64-3.17
			C412.85,354.02,412.64,353.17,412.29,351.83z M420.3,335.39c-0.09,0.35-0.19,0.7-0.28,1.05c-0.06,0.23-0.16,0.98-0.29,2.25
			c-0.14,1.27-0.37,2.45-0.69,3.52c-0.32,1.08-0.17,2.55,0.42,4.44c0.6,1.89,0.97,2.92,1.16,3.07c0.19,0.15,0.39,0.09,0.61-0.19
			c0.37-0.97,0.73-1.94,1.09-2.92c0.38-1.1,0.62-2.21,0.73-3.33c0.11-1.11,0.36-2.64,0.73-4.58c0-0.28,0-0.57,0-0.85
			c-0.07-0.19,0-0.8,0.18-1.83c0.18-1.03,0.23-1.85,0.15-2.46c0.09-0.28,0.18-0.57,0.27-0.85c-0.37-1.43-0.39-2.63-0.06-3.6
			c0.33-0.97,0.39-1.53,0.18-1.66c-0.41-0.27-0.9,0.06-1.47,0.96c-0.24,0.38-0.44,1.07-0.6,2.05c-0.36,0.54-0.71,1.09-1.07,1.63
			c-0.13,0.19-0.27,0.84-0.44,1.96C420.71,334.5,420.51,334.95,420.3,335.39z"/>
		<path class="st0" d="M471.68,233.69c0.01-0.15,0.02-0.3,0.03-0.45c0.11-0.37,0.21-0.73,0.32-1.1c0.01-0.15-0.02-0.3-0.09-0.46
			c-0.68-0.06-1.21-0.71-1.61-1.94c-0.73-0.44-1.26-1.32-1.59-2.65c-0.33-1.33-0.88-3.44-1.71-6.33c-0.41-0.95-0.82-1.91-1.24-2.85
			c-0.11-0.45-0.22-0.91-0.33-1.36c-0.19-0.3-0.39-0.61-0.58-0.91c-0.51-0.83-0.76-1.62-0.76-2.38c0.01-1.13,0.23-1.69,0.66-1.7
			c0.4,0.34,0.8,0.68,1.2,1.02c0.66-0.15,1.32-0.3,1.98-0.45c0.72,0,1.36,0.48,1.91,1.45c0.55,0.97,1.36,2.46,2.39,4.5
			c1.03,2,2.05,4.01,3.04,6.03c0.24,1.06,0.46,2.11,0.69,3.17c0.2,0.79,0.44,1.5,0.72,2.14c0.57,1.55,1.12,3.1,1.66,4.66
			c0.56,0.05,0.95,0.44,1.17,1.16c-0.05,0.62-0.1,1.23-0.15,1.84c0.05,0.31,0.11,0.63,0.16,0.94c0.71,0.62,1.3,2.28,1.74,4.97
			c0.14,0.56,0.28,1.12,0.42,1.68c0.18,0.57,0.24,1.08,0.18,1.54c-0.21,1.05-0.42,2.1-0.63,3.14c-0.01,0.73-0.03,1.45-0.05,2.18
			c-0.08,0.6-0.35,1.38-0.82,2.33c-0.46,0.95-0.87,1.92-1.21,2.91c-0.34,1-1.29,2.16-2.83,3.44c-1.55,1.28-2.54,1.92-2.95,1.97
			c-0.16-0.03-0.45,0.07-0.88,0.3c-0.43,0.23-0.69,0.34-0.76,0.32c-0.08-0.02-0.41-0.42-1-1.21c-0.04-0.01-0.08-0.02-0.12-0.03
			c-0.12-0.03-0.43,0.11-0.93,0.39c-0.5,0.29-1.07,0.35-1.69,0.21c-0.35-0.08-0.84,0.02-1.47,0.31c-0.21-0.62-0.39-0.95-0.55-0.98
			c-0.16-0.04-0.4,0.02-0.73,0.15c-0.33,0.14-0.58,0.19-0.73,0.15c-0.92-0.42-1.84-0.85-2.76-1.27c-0.51,0.02-1.03,0.04-1.54,0.06
			c-0.46-0.17-0.91-0.35-1.37-0.52c-0.82-0.19-1.34,0.31-1.58,1.48c-0.1,0.52-0.02,1.22,0.25,2.11c-0.01,0.24-0.02,0.47-0.03,0.71
			c0.14,1.88,0.28,3.21,0.44,4.01c0.17,0.8,0.16,1.58-0.02,2.35c0.14,0.45,0.18,1.25,0.1,2.39c0.05,0.29,0.1,0.58,0.15,0.87
			c0.09,0.3,0.19,0.88,0.3,1.74c0.11,0.04,0.46,1.43,0.96,4.19c0.51,2.76,0.96,5.27,1.4,7.53c0.44,2.26,0.54,3.84,0.35,4.72
			c-0.19,0.88,0.15,1.49,1.02,1.82c0.15,0.06,0.26,0.74,0.32,2.05c-0.05,0.13,0.14,0.95,0.54,2.47c-0.81,0.82-1.24,1.29-1.29,1.41
			c-0.3,0.81,0.09,1.66,1.18,2.55c0.34,0.58,0.26,1.72-0.27,3.39c-0.01,0.14,0.18,0.48,0.57,1.02c0.02,0.16,0.05,0.31,0.07,0.47
			c-0.13,0.31-0.25,0.63-0.38,0.94c-0.05,0.12-0.01,0.65,0.1,1.59c0.12,0.94,0.11,1.71-0.02,2.32c0.65,1.27,0.85,2.19,0.6,2.74
			c-0.11,0.25-0.34,0.57-0.69,0.96c-0.35,0.39-0.73,0.89-1.14,1.51c-0.41,0.62-1.2,1.14-2.35,1.55c-1.15,0.42-2,0.48-2.54,0.2
			c-4-2.06-5.58-4.41-4.82-7.08c-0.05-0.09-0.09-0.19-0.14-0.28c-0.15-0.07-0.29-0.14-0.44-0.21c-0.47-0.23-0.66-0.73-0.56-1.49
			c0.09-0.76-0.01-1.64-0.31-2.62c-0.31-0.98-0.45-1.6-0.42-1.87c0.16-0.38,0.32-0.76,0.47-1.13c0.1-0.23-0.24-0.53-1.02-0.88
			c-0.22-0.1-0.36-0.34-0.43-0.71c-0.07-0.37-0.26-0.67-0.59-0.88c-0.33-0.22-0.73-0.89-1.21-2.02c-0.48-1.13-0.81-1.72-0.96-1.79
			c-0.1,0.02-0.19,0.05-0.29,0.07c0.29,1.81,0.33,3.05,0.14,3.71c-0.19,0.66-0.01,1.76,0.52,3.31c-0.25,0.43-0.5,0.86-0.75,1.29
			c0.09,2.93,0.04,4.71-0.08,5.34c-0.12,0.64,0.01,1.47,0.37,2.49c0.22,0.11,0.27,0.38,0.15,0.82c-0.12,0.43-0.18,1.31-0.21,2.64
			c-0.08,0.17-0.17,0.33-0.25,0.5c-0.7,1.4-1.7,1.73-2.97,1.03c-0.72-1.13-1.44-2.25-2.18-3.37c-0.72-1.01-0.96-2.58-0.76-4.75
			c0.2-2.16,0.26-4.03,0.21-5.59c-0.06-1.56,0.16-2.98,0.66-4.27c-0.1-0.28-0.2-0.56-0.31-0.84c0.31-2.1,0.06-3.73-0.72-4.84
			c-0.77-1.12-0.94-2.25-0.5-3.43c1.15-3.07,2.73-5.16,4.82-6.26c2.09-1.11,3.58-1.54,4.49-1.2c0.53,0.13,1.06,0.25,1.59,0.38
			c0.53,0.19,1.21,0.64,2.04,1.35c0.45,0.98,0.84,1.53,1.18,1.66c0.3,0.11,0.55-0.14,0.75-0.75c0.12-0.37,0.11-0.92-0.02-1.64
			c-0.13-0.73-0.21-1.53-0.24-2.39c-0.03-0.86-0.13-1.39-0.28-1.58c-0.73-0.93-1.05-2.21-0.96-3.87c0.09-1.66,0.05-2.71-0.08-3.15
			c-0.07-0.36-0.14-0.71-0.22-1.07c-0.22-0.34-0.45-0.67-0.67-1.01c-0.03-1.81-0.19-3.06-0.44-3.73c-0.25-0.67-0.33-1.49-0.23-2.46
			c0.1-0.97-0.01-2.13-0.34-3.47c0.02-0.49,0.04-0.98,0.06-1.47c-0.07-0.48-0.13-0.96-0.2-1.44c-0.05-0.15-0.07-0.55-0.07-1.21
			c0.01-0.66-0.02-1.65-0.09-2.95c-0.07-1.31-0.07-2.18,0-2.63c0.55-3.27,1.74-5.73,3.62-7.42c1.88-1.69,3.31-2.51,4.3-2.35
			c0.35,0.12,0.7,0.25,1.04,0.37c0.55-0.06,1.1-0.11,1.65-0.17c0.08,0.01,0.16,0.02,0.24,0.04c1.06,0.44,2.11,0.89,3.16,1.33
			c0.38-0.01,0.77-0.03,1.15-0.04c1.86,0.28,3.06,1.2,3.58,2.74c0.03,0.37,0.21,0.58,0.52,0.63c0.18,0.03,0.36,0.06,0.53,0.09
			c0.93-0.58,1.85-1.17,2.77-1.76c0.95-0.52,1.45-0.97,1.5-1.34c-0.04-1.21-0.08-2.41-0.13-3.62c-0.05-1.06-0.38-1.97-0.99-2.72
			c-0.1-0.61-0.48-1.71-1.15-3.28C471.86,235.4,471.6,234.66,471.68,233.69z"/>
	</g>
</g>
</svg>
